Cover: 
http://imgr.us/images/g0z3g980gijwx73rkqtg.jpg

Info:

Format : Matroska
Format version : Version 2
File size : 700 MiB
Duration : 2h 44mn
Overall bit rate : 594 Kbps
Movie name : Encoded by apextream
Encoded date : UTC 2012-11-19 23:56:34
Writing application : mkvmerge v5.8.0 ('No Sleep / Pillow') built on Sep 2 2012 15:37:04
Writing library : libebml v1.2.3 + libmatroska v1.3.0

Video
ID : 1
Format : AVC
Format/Info : Advanced Video Codec
Format profile : High@L3.0
Format settings, CABAC : Yes
Format settings, ReFrames : 4 frames
Muxing mode : Header stripping
Codec ID : V_MPEG4/ISO/AVC
Duration : 2h 44mn
Bit rate : 435 Kbps
Width : 720 pixels
Height : 304 pixels
Display aspect ratio : 2.35:1
Frame rate : 23.976 fps
Color space : YUV
Chroma subsampling : 4:2:0
Bit depth : 8 bits
Scan type : Progressive
Bits/(Pixel*Frame) : 0.083
Stream size : 497 MiB (71%)
Title : apextream
Writing library : x264 core 125 r2200 999b753
Language : English
Default : Yes
Forced : No

Audio #1
ID : 2
Format : MPEG Audio
Format version : Version 1
Format profile : Layer 3
Mode : Joint stereo
Mode extension : MS Stereo
Muxing mode : Header stripping
Codec ID : A_MPEG/L3
Codec ID/Hint : MP3
Duration : 2h 44mn
Bit rate mode : Constant
Bit rate : 64.0 Kbps
Channel(s) : 2 channels
Sampling rate : 48.0 KHz
Compression mode : Lossy
Stream size : 75.3 MiB (11%)
Title : apextream
Writing library : LAME3.98.2
Language : English
Default : No
Forced : No

Audio #2
ID : 3
Format : MPEG Audio
Format version : Version 1
Format profile : Layer 3
Mode : Joint stereo
Mode extension : MS Stereo
Muxing mode : Header stripping
Codec ID : A_MPEG/L3
Codec ID/Hint : MP3
Duration : 2h 44mn
Bit rate mode : Constant
Bit rate : 96.0 Kbps
Channel(s) : 2 channels
Sampling rate : 48.0 KHz
Compression mode : Lossy
Delay relative to video : 2s 0ms
Stream size : 113 MiB (16%)
Title : apextream
Writing library : LAME3.98.2
Language : Hindi
Default : Yes
Forced : No

Screens:
 
http://imgr.us/images/5xwo6h6gdblkmh7wcrm.png 
http://imgr.us/images/tyrff0chczvldyjzknne.png 
http://imgr.us/images/42xy76tggz2grxqo8hi.png